# xmcd
#
# Track frame offsets:
#	150
#	16252
#	36623
#	50349
#	63831
#
# Disc length: 1111 seconds
#
# Revision: 0
# Processed by: cddbd v1.5.2PL0 Copyright (c) Steve Scherf et al.
# Submitted via: EasyCDDAExtractor 10.0.2.1
#
DISCID=3b045505
DTITLE=Murdershock - Inside My Insanity
DYEAR=2007
DGENRE=
TTITLE0=Fists And Faces
TTITLE1=Lunarcentric
TTITLE2=The Unsrper
TTITLE3=All About Hate
TTITLE4=Dreamcatchers
EXTD=
EXTT0=
EXTT1=
EXTT2=
EXTT3=
EXTT4=
PLAYORDER=
